<svg xmlns="http://www.w3.org/2000/svg" viewBox="0 0 512 512">
  <rect width="512" height="512" rx="64" fill="#ff6b35"/>
  <!-- Plate -->
  <circle cx="256" cy="280" r="160" fill="#fff" opacity="0.95"/>
  <circle cx="256" cy="280" r="130" fill="#fff"/>
  <circle cx="256" cy="280" r="120" fill="none" stroke="#e0e0e0" stroke-width="2"/>
  <!-- Fork -->
  <g transform="translate(160, 100) rotate(15, 40, 120)">
    <rect x="36" y="60" width="8" height="160" rx="4" fill="#ff6b35"/>
    <rect x="22" y="20" width="6" height="50" rx="3" fill="#ff6b35"/>
    <rect x="37" y="20" width="6" height="50" rx="3" fill="#ff6b35"/>
    <rect x="52" y="20" width="6" height="50" rx="3" fill="#ff6b35"/>
  </g>
  <!-- Knife -->
  <g transform="translate(280, 100) rotate(-15, 40, 120)">
    <rect x="36" y="60" width="8" height="160" rx="4" fill="#ff6b35"/>
    <path d="M36,20 Q30,40 36,60 L44,60 Q50,40 44,20 Z" fill="#ff6b35"/>
  </g>
  <!-- Steam lines -->
  <path d="M220,140 Q215,120 220,100" fill="none" stroke="#ff6b35" stroke-width="4" stroke-linecap="round" opacity="0.5"/>
  <path d="M256,130 Q251,110 256,90" fill="none" stroke="#ff6b35" stroke-width="4" stroke-linecap="round" opacity="0.5"/>
  <path d="M292,140 Q287,120 292,100" fill="none" stroke="#ff6b35" stroke-width="4" stroke-linecap="round" opacity="0.5"/>
</svg>
